<?xml version="1.0" encoding="utf-8"?>
<!-- Generator: Adobe Illustrator 16.0.0, SVG Export Plug-In . SVG Version: 6.00 Build 0)  -->
<!DOCTYPE svg PUBLIC "-//W3C//DTD SVG 1.1//EN" "http://www.w3.org/Graphics/SVG/1.1/DTD/svg11.dtd">
<svg version="1.1" id="Layer_1" xmlns="http://www.w3.org/2000/svg" xmlns:xlink="http://www.w3.org/1999/xlink" x="0px" y="0px"
	 width="131.315px" height="140.717px" viewBox="0 0 131.315 140.717" enable-background="new 0 0 131.315 140.717"
	 xml:space="preserve">
<circle stroke="#000000" stroke-miterlimit="10" cx="63.694" cy="77.023" r="63.694"/>
<circle fill="#FF0000" stroke="#000000" stroke-miterlimit="10" cx="63.694" cy="77.023" r="22.93"/>
<path fill="none" stroke="#000000" stroke-miterlimit="10" d="M55.611-17.19"/>
<path fill="none" stroke="#000000" stroke-miterlimit="10" d="M20.611-17.19"/>
<path fill="none" stroke="#000000" stroke-miterlimit="10" d="M50.611-10.19"/>
<path fill="#B3B3B3" d="M121.579,48.798C113.66,18.177,98.151,9.248,67.776,11.976c-3.049,0.316-4.629-3.379-3.91-6.508
	c0.717-3.13,3.34-4.313,6.506-4.828c29.891-3.998,54.605,10.824,60.646,41.748c0.615,3.286,0.443,6.188-2.162,7.955
	c-2.604,1.773-6.512,1.412-7.275-1.543L121.579,48.798z"/>
<path fill="#B3B3B3" d="M102.71,52.785C98.557,34.25,89.59,29.06,71.702,31.218c-1.797,0.244-2.664-1.982-2.19-3.901
	c0.472-1.92,2.032-2.685,3.901-3.05c17.625-2.924,31.902,5.707,34.947,24.456c0.309,1.993,0.158,3.765-1.399,4.884
	c-1.56,1.124-3.849,0.967-4.248-0.821L102.71,52.785z"/>
<path fill="#B3B3B3" d="M89.965,56.376c-1.992-10.359-6.788-13.148-16.531-11.683c-0.979,0.161-1.418-1.077-1.135-2.163
	c0.285-1.085,1.143-1.537,2.162-1.768c9.609-1.895,17.241,2.756,18.628,13.25c0.14,1.116,0.034,2.113-0.829,2.766
	C91.399,57.431,90.158,57.376,89.965,56.376L89.965,56.376z"/>
</svg>
